# xmcd
#
# Track frame offsets:
#	150
#	19200
#	34632
#	47313
#	64882
#	78783
#	94728
#	111812
#	126900
#	148894
#	162465
#	180090
#	195215
#
# Disc length: 2790 seconds
#
# Revision: 0
# Processed by: cddbd v1.5.2PL0 Copyright (c) Steve Scherf et al.
# Submitted via: dBpowerAMP V4.0
#
DISCID=9f0ae40d
DTITLE=Acampamente Farroupilha - galpão da liberdade
DYEAR=1900
DGENRE=
TTITLE0=01 - vaneira farroupilha - bando gaucho
TTITLE1=02 - guri campeiro - Grupo Estancia
TTITLE2=03 - enforquilhado nos arreios - Grupo Floreio
TTITLE3=04 - marco da historia - Volmir Martins
TTITLE4=05 - acampamento - Matizes
TTITLE5=06 - saudade de meu pai - Sandro Coelho
TTITLE6=07 - acampamento na harmonia - Moreno Martins
TTITLE7=08 - Ze risão - Sonino Canhoto
TTITLE8=09 - acampados - Lobisomem
TTITLE9=10 - versos e poesias - Dario Caneda
TTITLE10=11 - farroupilha - Odilon Ramos
TTITLE11=12 - acampamento farroupilha - Adriano Macedo
TTITLE12=13 - gauchadas - Dandão
EXTD=
EXTT0=
EXTT1=
EXTT2=
EXTT3=
EXTT4=
EXTT5=
EXTT6=
EXTT7=
EXTT8=
EXTT9=
EXTT10=
EXTT11=
EXTT12=
PLAYORDER=
